<svg width="24" height="24" viewBox="0 0 24 24" fill="none" xmlns="http://www.w3.org/2000/svg">
<path d="M8 2C8 1.44772 7.55228 1 7 1C6.44772 1 6 1.44772 6 2H8ZM18 2C18 1.44772 17.5523 1 17 1C16.4477 1 16 1.44772 16 2H18ZM4 5H7V3H4V5ZM7 5H17V3H7V5ZM17 5H20V3H17V5ZM20 21H4V23H20V21ZM3 20V9H1V20H3ZM3 9V6H1V9H3ZM21 6V9H23V6H21ZM21 9V20H23V9H21ZM2 10H22V8H2V10ZM8 4V2H6V4H8ZM18 4V2H16V4H18ZM4 21C3.44772 21 3 20.5523 3 20H1C1 21.6569 2.34315 23 4 23V21ZM20 23C21.6569 23 23 21.6569 23 20H21C21 20.5523 20.5523 21 20 21V23ZM20 5C20.5523 5 21 5.44772 21 6H23C23 4.34315 21.6569 3 20 3V5ZM4 3C2.34315 3 1 4.34315 1 6H3C3 5.44772 3.44772 5 4 5V3Z" fill="#E4E4E4"/>
</svg>
