<svg width="40" height="40" viewBox="0 0 40 40" fill="none" xmlns="http://www.w3.org/2000/svg">
<path d="M2.66663 23.3333V15H0.666626V23.3333H2.66663ZM37.3333 15V23.3333H39.3333V15H37.3333ZM6.66663 36H33.3333V34H6.66663V36ZM4.99996 12.6667H13.3333V10.6667H4.99996V12.6667ZM14.3333 11.6667V8.33333H12.3333V11.6667H14.3333ZM16.6666 6H23.3333V4H16.6666V6ZM13.3333 12.6667H26.6666V10.6667H13.3333V12.6667ZM26.6666 12.6667H35V10.6667H26.6666V12.6667ZM25.6666 8.33333V11.6667H27.6666V8.33333H25.6666ZM24.3333 25V23.3333H22.3333V25H24.3333ZM21.6666 20.6667H18.3333V22.6667H21.6666V20.6667ZM15.6666 23.3333V25H17.6666V23.3333H15.6666ZM15.6666 25V26.6667H17.6666V25H15.6666ZM18.3333 29.3333H21.6666V27.3333H18.3333V29.3333ZM24.3333 26.6667V25H22.3333V26.6667H24.3333ZM16.6666 24H3.33329V26H16.6666V24ZM4.33329 31.6667V25H2.33329V31.6667H4.33329ZM36.6666 24H23.3333V26H36.6666V24ZM37.6666 31.6667V25H35.6666V31.6667H37.6666ZM21.6666 29.3333C23.1394 29.3333 24.3333 28.1394 24.3333 26.6667H22.3333C22.3333 27.0349 22.0348 27.3333 21.6666 27.3333V29.3333ZM23.3333 6C24.622 6 25.6666 7.04467 25.6666 8.33333H27.6666C27.6666 5.9401 25.7265 4 23.3333 4V6ZM14.3333 8.33333C14.3333 7.04467 15.378 6 16.6666 6V4C14.2734 4 12.3333 5.9401 12.3333 8.33333H14.3333ZM33.3333 36C35.7265 36 37.6666 34.0599 37.6666 31.6667H35.6666C35.6666 32.9553 34.622 34 33.3333 34V36ZM6.66663 34C5.37796 34 4.33329 32.9553 4.33329 31.6667H2.33329C2.33329 34.0599 4.27339 36 6.66663 36V34ZM15.6666 26.6667C15.6666 28.1394 16.8605 29.3333 18.3333 29.3333V27.3333C17.9651 27.3333 17.6666 27.0349 17.6666 26.6667H15.6666ZM37.3333 23.3333C37.3333 23.7015 37.0348 24 36.6666 24V26C38.1394 26 39.3333 24.8061 39.3333 23.3333H37.3333ZM39.3333 15C39.3333 12.6068 37.3932 10.6667 35 10.6667V12.6667C36.2886 12.6667 37.3333 13.7113 37.3333 15H39.3333ZM18.3333 20.6667C16.8605 20.6667 15.6666 21.8606 15.6666 23.3333H17.6666C17.6666 22.9651 17.9651 22.6667 18.3333 22.6667V20.6667ZM2.66663 15C2.66663 13.7113 3.71129 12.6667 4.99996 12.6667V10.6667C2.60673 10.6667 0.666626 12.6068 0.666626 15H2.66663ZM24.3333 23.3333C24.3333 21.8606 23.1394 20.6667 21.6666 20.6667V22.6667C22.0348 22.6667 22.3333 22.9651 22.3333 23.3333H24.3333ZM0.666626 23.3333C0.666626 24.8061 1.86053 26 3.33329 26V24C2.9651 24 2.66663 23.7015 2.66663 23.3333H0.666626Z" fill="#272727"/>
</svg>
