<svg width="40" height="40" viewBox="0 0 40 40" fill="none" xmlns="http://www.w3.org/2000/svg">
<path d="M22.3334 7.49967C22.3334 7.72662 22.2272 8.03334 21.8457 8.40914C21.4607 8.78841 20.8523 9.176 20.0198 9.52288C18.3592 10.2148 15.9958 10.6663 13.3334 10.6663V12.6663C16.1938 12.6663 18.8304 12.1851 20.7891 11.369C21.7662 10.9619 22.6223 10.4516 23.2493 9.83392C23.8799 9.21274 24.3334 8.42333 24.3334 7.49967H22.3334ZM13.3334 10.6663C10.671 10.6663 8.30754 10.2148 6.64692 9.52288C5.81443 9.176 5.20601 8.78841 4.82101 8.40914C4.43952 8.03334 4.33337 7.72662 4.33337 7.49967H2.33337C2.33337 8.42333 2.78687 9.21274 3.41744 9.83392C4.04449 10.4516 4.90054 10.9619 5.87769 11.369C7.83636 12.1851 10.4729 12.6663 13.3334 12.6663V10.6663ZM4.33337 7.49967C4.33337 7.27273 4.43952 6.96601 4.82101 6.59021C5.20601 6.21094 5.81443 5.82335 6.64692 5.47647C8.30754 4.78455 10.671 4.33301 13.3334 4.33301V2.33301C10.4729 2.33301 7.83636 2.81421 5.87769 3.63032C4.90054 4.03746 4.04449 4.54772 3.41744 5.16543C2.78687 5.78661 2.33337 6.57602 2.33337 7.49967H4.33337ZM13.3334 4.33301C15.9958 4.33301 18.3592 4.78455 20.0198 5.47647C20.8523 5.82335 21.4607 6.21094 21.8457 6.59021C22.2272 6.96601 22.3334 7.27273 22.3334 7.49967H24.3334C24.3334 6.57602 23.8799 5.78661 23.2493 5.16543C22.6223 4.54772 21.7662 4.03746 20.7891 3.63032C18.8304 2.81421 16.1938 2.33301 13.3334 2.33301V4.33301ZM22.3334 14.1663C22.3334 14.3933 22.2272 14.7 21.8457 15.0758C21.4607 15.4551 20.8523 15.8427 20.0198 16.1895C18.3592 16.8815 15.9958 17.333 13.3334 17.333V19.333C16.1938 19.333 18.8304 18.8518 20.7891 18.0357C21.7662 17.6286 22.6223 17.1183 23.2493 16.5006C23.8799 15.8794 24.3334 15.09 24.3334 14.1663H22.3334ZM13.3334 17.333C10.671 17.333 8.30754 16.8815 6.64692 16.1895C5.81443 15.8427 5.20601 15.4551 4.82101 15.0758C4.43952 14.7 4.33337 14.3933 4.33337 14.1663H2.33337C2.33337 15.09 2.78687 15.8794 3.41744 16.5006C4.04449 17.1183 4.90054 17.6286 5.87769 18.0357C7.83636 18.8518 10.4729 19.333 13.3334 19.333V17.333ZM4.33337 14.1663V7.49967H2.33337V14.1663H4.33337ZM24.3334 14.1663V7.49967H22.3334V14.1663H24.3334ZM13.3334 23.9997C10.671 23.9997 8.30754 23.5481 6.64692 22.8562C5.81443 22.5093 5.20601 22.1217 4.82101 21.7425C4.43952 21.3667 4.33337 21.0599 4.33337 20.833H2.33337C2.33337 21.7567 2.78687 22.5461 3.41744 23.1673C4.04449 23.785 4.90054 24.2952 5.87769 24.7024C7.83636 25.5185 10.4729 25.9997 13.3334 25.9997V23.9997ZM4.33337 20.833V14.1663H2.33337V20.833H4.33337ZM13.3334 30.6663C10.671 30.6663 8.30754 30.2148 6.64692 29.5229C5.81443 29.176 5.20601 28.7884 4.82101 28.4091C4.43952 28.0333 4.33337 27.7266 4.33337 27.4997H2.33337C2.33337 28.4233 2.78687 29.2127 3.41744 29.8339C4.04449 30.4516 4.90054 30.9619 5.87769 31.369C7.83636 32.1851 10.4729 32.6663 13.3334 32.6663V30.6663ZM4.33337 27.4997V20.833H2.33337V27.4997H4.33337ZM35.6667 25.833C35.6667 26.0599 35.5606 26.3667 35.1791 26.7425C34.7941 27.1217 34.1857 27.5093 33.3532 27.8562C31.6925 28.5481 29.3291 28.9997 26.6667 28.9997V30.9997C29.5272 30.9997 32.1637 30.5185 34.1224 29.7024C35.0995 29.2952 35.9556 28.785 36.5826 28.1673C37.2132 27.5461 37.6667 26.7567 37.6667 25.833H35.6667ZM26.6667 28.9997C24.0043 28.9997 21.6409 28.5481 19.9803 27.8562C19.1478 27.5093 18.5393 27.1217 18.1543 26.7425C17.7729 26.3667 17.6667 26.0599 17.6667 25.833H15.6667C15.6667 26.7567 16.1202 27.5461 16.7508 28.1673C17.3778 28.785 18.2339 29.2952 19.211 29.7024C21.1697 30.5185 23.8063 30.9997 26.6667 30.9997V28.9997ZM26.6667 22.6663C29.3291 22.6663 31.6925 23.1179 33.3532 23.8098C34.1857 24.1567 34.7941 24.5443 35.1791 24.9235C35.5606 25.2993 35.6667 25.6061 35.6667 25.833H37.6667C37.6667 24.9094 37.2132 24.1199 36.5826 23.4988C35.9556 22.8811 35.0995 22.3708 34.1224 21.9637C32.1637 21.1475 29.5272 20.6663 26.6667 20.6663V22.6663ZM35.6667 32.4997C35.6667 32.7266 35.5606 33.0333 35.1791 33.4091C34.7941 33.7884 34.1857 34.176 33.3532 34.5229C31.6925 35.2148 29.3291 35.6663 26.6667 35.6663V37.6663C29.5272 37.6663 32.1637 37.1851 34.1224 36.369C35.0995 35.9619 35.9556 35.4516 36.5826 34.8339C37.2132 34.2127 37.6667 33.4233 37.6667 32.4997H35.6667ZM26.6667 35.6663C24.0043 35.6663 21.6409 35.2148 19.9803 34.5229C19.1478 34.176 18.5393 33.7884 18.1543 33.4091C17.7729 33.0333 17.6667 32.7266 17.6667 32.4997H15.6667C15.6667 33.4233 16.1202 34.2127 16.7508 34.8339C17.3778 35.4516 18.2339 35.9619 19.211 36.369C21.1697 37.1851 23.8063 37.6663 26.6667 37.6663V35.6663ZM37.6667 32.4997V25.833H35.6667V32.4997H37.6667ZM17.6667 32.4997V31.4293H15.6667V32.4997H17.6667ZM17.6667 31.4293V25.833H15.6667V31.4293H17.6667ZM16.521 30.4399C15.5283 30.5861 14.4551 30.6663 13.3334 30.6663V32.6663C14.5492 32.6663 15.7199 32.5795 16.8124 32.4186L16.521 30.4399ZM17.6667 25.833C17.6667 25.6734 17.717 25.4861 17.8672 25.2632L16.2085 24.1457C15.8751 24.6406 15.6667 25.2104 15.6667 25.833H17.6667ZM16.8738 23.718C15.7848 23.899 14.5897 23.9997 13.3334 23.9997V25.9997C14.6946 25.9997 15.9996 25.8908 17.2019 25.6909L16.8738 23.718ZM23.4791 22.8928C24.4718 22.7466 25.545 22.6663 26.6667 22.6663V20.6663C25.4509 20.6663 24.2802 20.7532 23.1877 20.9141L23.4791 22.8928ZM17.8672 25.2632C18.1576 24.8321 18.7763 24.3416 19.7789 23.8964C20.7614 23.4601 22.0241 23.107 23.4791 22.8928L23.1877 20.9141C21.596 21.1485 20.1509 21.5429 18.9673 22.0685C17.8037 22.5851 16.798 23.2708 16.2085 24.1457L17.8672 25.2632ZM24.3334 21.9034V14.1663H22.3334V21.9034H24.3334Z" fill="#272727"/>
</svg>
