<svg width="40" height="40" viewBox="0 0 40 40" fill="none" xmlns="http://www.w3.org/2000/svg">
<path d="M15.7071 14.2932C15.3165 13.9027 14.6834 13.9027 14.2929 14.2932C13.9023 14.6837 13.9023 15.3169 14.2929 15.7074L15.7071 14.2932ZM18.3333 18.3337L17.6262 19.0408C17.8137 19.2283 18.0681 19.3337 18.3333 19.3337C18.5985 19.3337 18.8529 19.2283 19.0404 19.0408L18.3333 18.3337ZM25.7071 12.3741C26.0976 11.9836 26.0976 11.3504 25.7071 10.9599C25.3165 10.5694 24.6834 10.5694 24.2929 10.9599L25.7071 12.3741ZM32.5587 35.9135L33.5315 35.6819L32.5587 35.9135ZM30.2693 37.8265L29.8685 38.7426L30.2693 37.8265ZM20.668 33.6259L21.0688 32.7098H21.0688L20.668 33.6259ZM19.3319 33.6259L18.9311 32.7098L19.3319 33.6259ZM9.73064 37.8265L10.1315 38.7426H10.1315L9.73064 37.8265ZM7.44126 35.9135L6.46845 35.6819H6.46845L7.44126 35.9135ZM29.7458 24.0996L29.015 23.417L29.7458 24.0996ZM10.2541 24.0996L10.9849 23.417L10.2541 24.0996ZM7.66663 15.0003C7.66663 8.18881 13.1884 2.66699 20 2.66699V0.666992C12.0839 0.666992 5.66663 7.08424 5.66663 15.0003H7.66663ZM20 2.66699C26.8115 2.66699 32.3333 8.18881 32.3333 15.0003H34.3333C34.3333 7.08424 27.916 0.666992 20 0.666992V2.66699ZM14.2929 15.7074L17.6262 19.0408L19.0404 17.6266L15.7071 14.2932L14.2929 15.7074ZM19.0404 19.0408L25.7071 12.3741L24.2929 10.9599L17.6262 17.6266L19.0404 19.0408ZM30.6701 36.9103L21.0688 32.7098L20.2672 34.5421L29.8685 38.7426L30.6701 36.9103ZM18.9311 32.7098L9.32982 36.9103L10.1315 38.7426L19.7327 34.5421L18.9311 32.7098ZM9.32982 36.9103C8.82577 37.1309 8.28664 36.6804 8.41407 36.1451L6.46845 35.6819C5.95872 37.8228 8.11526 39.6247 10.1315 38.7426L9.32982 36.9103ZM21.0688 32.7098C20.3874 32.4117 19.6125 32.4117 18.9311 32.7098L19.7327 34.5421C19.9031 34.4676 20.0968 34.4676 20.2672 34.5421L21.0688 32.7098ZM31.5859 36.1451C31.7133 36.6804 31.1742 37.1309 30.6701 36.9103L29.8685 38.7426C31.8847 39.6247 34.0412 37.8228 33.5315 35.6819L31.5859 36.1451ZM28.773 24.3312L31.5859 36.1451L33.5315 35.6819L30.7186 23.868L28.773 24.3312ZM32.3333 15.0003C32.3333 18.2545 31.0743 21.2123 29.015 23.417L30.4766 24.7822C32.8682 22.2218 34.3333 18.7811 34.3333 15.0003H32.3333ZM29.015 23.417C26.7627 25.8284 23.5579 27.3337 20 27.3337V29.3337C24.1348 29.3337 27.8619 27.5816 30.4766 24.7822L29.015 23.417ZM8.41407 36.1451L11.2269 24.3312L9.28129 23.868L6.46845 35.6819L8.41407 36.1451ZM20 27.3337C16.442 27.3337 13.2372 25.8284 10.9849 23.417L9.5233 24.7822C12.138 27.5816 15.8652 29.3337 20 29.3337V27.3337ZM10.9849 23.417C8.92558 21.2123 7.66663 18.2545 7.66663 15.0003H5.66663C5.66663 18.7811 7.13175 22.2218 9.5233 24.7822L10.9849 23.417Z" fill="#272727"/>
</svg>
