<svg width="32" height="32" viewBox="0 0 32 32" fill="none" xmlns="http://www.w3.org/2000/svg">
<path fill-rule="evenodd" clip-rule="evenodd" d="M0 16C0 24.8366 7.16344 32 16 32C24.8366 32 32 24.8366 32 16C32 7.16344 24.8366 0 16 0C7.16344 0 0 7.16344 0 16ZM26.0414 15.3876C26.0393 20.6322 21.773 24.8995 16.5274 24.9016H16.5235C14.9312 24.9011 13.3666 24.5016 11.9769 23.7436L6.93335 25.0666L8.28309 20.1365C7.45051 18.6936 7.0124 17.057 7.01312 15.3801C7.0152 10.1344 11.2832 5.86664 16.5273 5.86664C19.0724 5.86774 21.4612 6.85855 23.2575 8.65691C25.0537 10.4552 26.0425 12.8455 26.0414 15.3876Z" fill="#BDAB84"/>
<path fill-rule="evenodd" clip-rule="evenodd" d="M9.21735 22.8064L12.2103 22.0213L12.499 22.1926C13.7131 22.9131 15.1049 23.2944 16.5239 23.2949H16.5271C20.8856 23.2949 24.433 19.7474 24.4347 15.3871C24.4355 13.2741 23.6138 11.2874 22.1208 9.79267C20.6278 8.29794 18.6423 7.47437 16.5302 7.47363C12.1683 7.47363 8.62087 11.0207 8.61914 15.3807C8.61853 16.8749 9.0366 18.3301 9.82818 19.5891L10.0162 19.8883L9.21735 22.8064ZM20.9946 17.436C21.1604 17.5162 21.2724 17.5703 21.3202 17.6501C21.3796 17.7492 21.3796 18.2252 21.1816 18.7806C20.9834 19.3359 20.0337 19.8427 19.5769 19.9109C19.1674 19.9721 18.6491 19.9977 18.0797 19.8167C17.7344 19.7071 17.2916 19.5609 16.7244 19.3159C14.4958 18.3536 12.9897 16.1936 12.7051 15.7854C12.6851 15.7568 12.6712 15.7368 12.6634 15.7264L12.6615 15.7238C12.5357 15.556 11.6927 14.4312 11.6927 13.2672C11.6927 12.1722 12.2306 11.5982 12.4782 11.334C12.4951 11.3159 12.5107 11.2993 12.5247 11.284C12.7426 11.046 13.0002 10.9865 13.1587 10.9865C13.3171 10.9865 13.4758 10.988 13.6143 10.9949C13.6314 10.9958 13.6491 10.9957 13.6675 10.9956C13.8061 10.9948 13.9788 10.9938 14.1491 11.403C14.2147 11.5605 14.3106 11.794 14.4118 12.0403C14.6163 12.5383 14.8423 13.0885 14.8821 13.1681C14.9415 13.2871 14.9811 13.4259 14.9019 13.5846C14.89 13.6084 14.879 13.6309 14.8685 13.6524C14.809 13.7739 14.7652 13.8632 14.6642 13.9812C14.6245 14.0276 14.5834 14.0776 14.5424 14.1276C14.4606 14.2272 14.3788 14.3267 14.3076 14.3977C14.1886 14.5162 14.0647 14.6448 14.2034 14.8828C14.342 15.1208 14.8191 15.8993 15.5259 16.5297C16.2855 17.2073 16.9458 17.4937 17.2805 17.6388C17.3458 17.6672 17.3988 17.6901 17.4376 17.7096C17.6752 17.8286 17.8139 17.8087 17.9526 17.6501C18.0913 17.4914 18.5469 16.9559 18.7053 16.718C18.8638 16.4801 19.0223 16.5197 19.2402 16.599C19.4581 16.6784 20.6269 17.2534 20.8646 17.3724C20.911 17.3956 20.9544 17.4166 20.9946 17.436Z" fill="#BDAB84"/>
</svg>